<?xml version="1.0" encoding="UTF-8" standalone="no"?>
<!-- Created with Inkscape (http://www.inkscape.org/) -->

<svg
   width="38.391026mm"
   height="11.904312mm"
   viewBox="0 0 38.391026 11.904312"
   version="1.1"
   id="svg1"
   xml:space="preserve"
   inkscape:export-filename="bitmap.png"
   inkscape:export-xdpi="60.476189"
   inkscape:export-ydpi="60.476189"
   sodipodi:docname="bitmap.svg"
   xmlns:inkscape="http://www.inkscape.org/namespaces/inkscape"
   xmlns:sodipodi="http://sodipodi.sourceforge.net/DTD/sodipodi-0.dtd"
   xmlns="http://www.w3.org/2000/svg"
   xmlns:svg="http://www.w3.org/2000/svg"><sodipodi:namedview
     id="namedview1"
     pagecolor="#505050"
     bordercolor="#eeeeee"
     borderopacity="1"
     inkscape:showpageshadow="0"
     inkscape:pageopacity="0"
     inkscape:pagecheckerboard="0"
     inkscape:deskcolor="#505050"
     inkscape:document-units="mm"
     inkscape:zoom="16"
     inkscape:cx="369.6875"
     inkscape:cy="574.90625"
     inkscape:window-width="1920"
     inkscape:window-height="1017"
     inkscape:window-x="-8"
     inkscape:window-y="-8"
     inkscape:window-maximized="1"
     inkscape:current-layer="layer1" /><defs
     id="defs1"><inkscape:path-effect
       effect="bspline"
       id="path-effect26"
       is_visible="true"
       lpeversion="1.3"
       weight="33.333333"
       steps="2"
       helper_size="0"
       apply_no_weight="true"
       apply_with_weight="true"
       only_selected="false"
       uniform="false" /><inkscape:path-effect
       effect="bspline"
       id="path-effect25"
       is_visible="true"
       lpeversion="1.3"
       weight="33.333333"
       steps="2"
       helper_size="0"
       apply_no_weight="true"
       apply_with_weight="true"
       only_selected="false"
       uniform="false" /><inkscape:path-effect
       effect="bspline"
       id="path-effect18"
       is_visible="true"
       lpeversion="1.3"
       weight="33.333333"
       steps="2"
       helper_size="0"
       apply_no_weight="true"
       apply_with_weight="true"
       only_selected="false"
       uniform="false" /></defs><g
     inkscape:label="Layer 1"
     inkscape:groupmode="layer"
     id="layer1"
     transform="translate(-79.99283,-144.58854)"><rect
       style="fill:#1a1a1a;stroke-width:0.264583"
       id="rect10"
       width="1.0852618"
       height="7.732491"
       x="79.992836"
       y="144.61115"
       ry="0.54263091"
       inkscape:export-filename="Fisheye100M.png"
       inkscape:export-xdpi="60.476189"
       inkscape:export-ydpi="60.476189" /><rect
       style="fill:#1a1a1a;stroke-width:0.278158"
       id="rect12"
       width="3.5280387"
       height="0.76644897"
       x="88.794449"
       y="148.37231"
       ry="0.38322449"
       rx="1.2789965" /><rect
       style="fill:#1a1a1a;stroke-width:0.334515"
       id="rect13"
       width="4.7706304"
       height="0.70089829"
       x="80.185028"
       y="144.58855"
       ry="0.35044861"
       rx="0" /><rect
       style="display:none;fill:#1a1a1a;stroke-width:0.419949"
       id="rect14"
       width="52.288223"
       height="0.58785021"
       x="75.70607"
       y="152.33702"
       rx="1.936601"
       ry="0.22609621" /><rect
       style="fill:#1a1a1a;stroke-width:0.264583"
       id="rect15"
       width="1.0400426"
       height="1.9557322"
       x="83.79126"
       y="150.37659"
       rx="0.76872718"
       ry="0.22609621" /><rect
       style="fill:#1a1a1a;stroke-width:0.264583"
       id="rect16"
       width="1.0287378"
       height="0.84786081"
       x="83.893005"
       y="147.34691"
       rx="0.76872718"
       ry="0.22609621" /><path
       style="display:none;fill:#1a1a1a;stroke-width:0.264583"
       d="m 85.696125,151.27345 c 0.0961,0.049 0.28827,0.14696 0.616114,0.18841 0.327844,0.0414 0.791331,0.0264 1.132362,-0.0226 0.34103,-0.049 0.559585,-0.13188 0.71597,-0.22609 0.156385,-0.0942 0.250585,-0.19971 0.284501,-0.29392 0.03392,-0.0942 0.0075,-0.17711 -0.08101,-0.26001 -0.08855,-0.0829 -0.239286,-0.16581 -0.52568,-0.23364 -0.286394,-0.0678 -0.708428,-0.12058 -1.060766,-0.21479 -0.352338,-0.0942 -0.634949,-0.22986 -0.864815,-0.43523 -0.229867,-0.20538 -0.406973,-0.48046 -0.452191,-0.71786 -0.04522,-0.2374 0.04145,-0.43712 0.252481,-0.61611 0.211027,-0.17899 0.546392,-0.33726 0.896846,-0.38625 0.350454,-0.049 0.715968,0.0113 0.992938,0.19407 0.27697,0.18277 0.465378,0.48799 0.567121,0.70844 0.101744,0.22044 0.116817,0.3561 0.08479,0.45407 -0.03203,0.098 -0.111165,0.15827 -0.194076,0.15638 -0.08291,-0.002 -0.169563,-0.0659 -0.226086,-0.18276 -0.05652,-0.11682 -0.0829,-0.28639 -0.177106,-0.43335 -0.09421,-0.14696 -0.256242,-0.27132 -0.450311,-0.35234 -0.19407,-0.081 -0.420164,-0.1187 -0.604808,-0.0772 -0.184643,0.0414 -0.327834,0.16203 -0.418273,0.29393 -0.09044,0.13189 -0.128122,0.27508 -0.0716,0.43523 0.05652,0.16015 0.207254,0.33726 0.442777,0.45219 0.235524,0.11494 0.555813,0.16769 0.842206,0.21857 0.286393,0.0509 0.538864,0.0999 0.774381,0.16015 0.235517,0.0603 0.454071,0.13188 0.610455,0.23174 0.156384,0.0999 0.250589,0.22798 0.261894,0.3919 0.0113,0.16392 -0.06029,0.36364 -0.203489,0.55206 -0.143196,0.18841 -0.357986,0.36552 -0.761195,0.51059 -0.403209,0.14508 -0.994817,0.25813 -1.394257,0.29016 -0.399441,0.032 -0.606694,-0.017 -0.770601,-0.0867 -0.163907,-0.0697 -0.284511,-0.16016 -0.357986,-0.25058 -0.07348,-0.0904 -0.09986,-0.1809 -0.08478,-0.26381 0.01508,-0.0829 0.07159,-0.15826 0.09985,-0.19594 0.02826,-0.0377 0.02825,-0.0377 0.124348,0.0113 z"
       id="path18"
       inkscape:path-effect="#path-effect18"
       inkscape:original-d="m 85.600028,151.22446 c 0.192183,0.098 0.384366,0.19595 0.576546,0.29392 0.463508,-0.0151 0.926997,-0.0301 1.390494,-0.0452 0.218564,-0.0829 0.437118,-0.1658 0.655677,-0.2487 0.09421,-0.10552 0.188415,-0.21102 0.28262,-0.31654 -0.02638,-0.0829 -0.05275,-0.1658 -0.07913,-0.2487 -0.150735,-0.0829 -0.301463,-0.16581 -0.452194,-0.24871 -0.422052,-0.0528 -0.844092,-0.10551 -1.266137,-0.15826 -0.282628,-0.13567 -0.565242,-0.27132 -0.847862,-0.40698 -0.177112,-0.27509 -0.354217,-0.55017 -0.531326,-0.82525 0.08667,-0.19972 0.173342,-0.39944 0.260011,-0.59915 0.335383,-0.15828 0.670751,-0.31654 1.006129,-0.47481 0.365529,0.0603 0.731043,0.12059 1.096565,0.18088 0.188418,0.30524 0.376828,0.61046 0.56524,0.91569 0.01508,0.13566 0.03015,0.27132 0.04522,0.40697 -0.07913,0.0603 -0.158266,0.12059 -0.2374,0.18088 -0.08667,-0.0641 -0.173342,-0.12812 -0.260011,-0.19218 -0.02638,-0.16958 -0.05276,-0.33915 -0.07913,-0.50872 -0.162039,-0.12435 -0.32407,-0.24871 -0.486106,-0.37306 -0.226102,-0.0377 -0.452194,-0.0754 -0.678289,-0.11305 -0.143197,0.12059 -0.28639,0.24117 -0.429582,0.36176 -0.03768,0.1432 -0.07537,0.28639 -0.113049,0.42958 0.150733,0.17711 0.301461,0.35422 0.452191,0.53133 0.32031,0.0528 0.640607,0.10551 0.960909,0.15827 0.252481,0.049 0.504949,0.098 0.757423,0.14696 0.218564,0.0716 0.43712,0.14319 0.655679,0.21479 0.09421,0.12812 0.188413,0.25624 0.28262,0.38436 -0.0716,0.19972 -0.143195,0.39944 -0.214791,0.59916 -0.214797,0.17711 -0.429583,0.35422 -0.644374,0.53132 -0.59163,0.11305 -1.183238,0.2261 -1.774854,0.33915 -0.207262,-0.049 -0.414512,-0.098 -0.621766,-0.14696 -0.120586,-0.0904 -0.24117,-0.18088 -0.361754,-0.27132 -0.02638,-0.0904 -0.05276,-0.18088 -0.07913,-0.27132 0.05652,-0.0754 0.113048,-0.15073 0.169571,-0.22609 z"
       transform="translate(-0.03197483,0.25579868)" /><rect
       style="fill:#1a1a1a;stroke-width:0.264583"
       id="rect22"
       width="1.0852618"
       height="7.732491"
       x="88.640991"
       y="144.60518"
       ry="0.54263091" /><rect
       style="fill:#1a1a1a;stroke-width:0.18612"
       id="rect23"
       width="1.0852618"
       height="3.8262951"
       x="91.246948"
       y="148.50337"
       ry="0.26851192"
       rx="0.54263091" /><path
       style="display:none;fill:#1a1a1a;stroke-width:0.264583"
       d="m 94.389711,149.521 c 0.135891,0.007 0.407675,0.02 0.6848,-0.02 0.277125,-0.04 0.559551,-0.13322 0.747405,-0.24646 0.187854,-0.11325 0.281111,-0.24647 0.325079,-0.39436 0.04397,-0.14788 0.03864,-0.31042 -0.008,-0.47562 -0.04663,-0.16521 -0.134559,-0.33307 -0.274456,-0.45564 -0.139897,-0.12258 -0.331733,-0.19985 -0.562222,-0.2185 -0.230489,-0.0187 -0.499598,0.0213 -0.723425,0.14389 -0.223828,0.12257 -0.402352,0.32774 -0.559562,0.62884 -0.157211,0.3011 -0.2931,0.69811 -0.361048,1.10046 -0.06795,0.40236 -0.06795,0.81003 0.01599,1.14577 0.08394,0.33574 0.251803,0.59953 0.48762,0.81669 0.235817,0.21717 0.539568,0.38769 0.97923,0.44631 0.439662,0.0586 1.015196,0.005 1.494823,-0.13056 0.479627,-0.1359 0.863318,-0.35439 1.088474,-0.54357 0.225157,-0.18919 0.29177,-0.34906 0.311749,-0.46764 0.01998,-0.11859 -0.0067,-0.19584 -0.05862,-0.23314 -0.05196,-0.0373 -0.129214,-0.0346 -0.210493,0.016 -0.08128,0.0506 -0.166539,0.14921 -0.399693,0.28777 -0.233154,0.13856 -0.61418,0.31708 -1.032522,0.41034 -0.418341,0.0933 -0.873972,0.10126 -1.20971,-0.0213 -0.335738,-0.12257 -0.551563,-0.3757 -0.676798,-0.69679 -0.125236,-0.32108 -0.159874,-0.7101 -0.177194,-0.90462 -0.01732,-0.19451 -0.01732,-0.19456 0.118568,-0.18789 z"
       id="path25"
       inkscape:path-effect="#path-effect25"
       inkscape:original-d="m 94.253819,149.51433 c 0.271785,0.0133 0.54357,0.0266 0.815358,0.04 0.282448,-0.0933 0.564888,-0.18651 0.847331,-0.27978 0.09326,-0.13323 0.186521,-0.26645 0.279781,-0.39968 -0.0053,-0.16254 -0.01066,-0.32508 -0.01598,-0.48762 -0.08793,-0.16787 -0.175863,-0.33573 -0.263795,-0.5036 -0.191852,-0.0773 -0.383696,-0.15455 -0.575545,-0.23182 -0.269126,0.04 -0.538245,0.0799 -0.807366,0.11991 -0.17853,0.20517 -0.357052,0.41034 -0.535577,0.61551 -0.135895,0.39703 -0.271785,0.79404 -0.407681,1.19107 0,0.40768 0,0.81535 0,1.22303 0.167873,0.2638 0.335738,0.52759 0.503606,0.79138 0.303765,0.17054 0.60752,0.34106 0.911283,0.5116 0.575558,-0.0533 1.151093,-0.10659 1.726639,-0.15988 0.383707,-0.2185 0.767397,-0.43699 1.151096,-0.65548 0.06661,-0.15988 0.133228,-0.31975 0.199842,-0.47962 -0.02665,-0.0773 -0.05329,-0.15455 -0.07994,-0.23182 -0.07727,0.003 -0.154543,0.005 -0.231817,0.008 -0.08527,0.0986 -0.170532,0.19718 -0.2558,0.29577 -0.381039,0.17853 -0.762066,0.35705 -1.1431,0.53557 -0.45565,0.008 -0.911281,0.016 -1.366922,0.024 -0.215837,-0.25314 -0.431663,-0.50627 -0.647491,-0.75941 -0.03464,-0.38903 -0.06928,-0.77805 -0.103918,-1.16708 z" /><path
       style="display:none;fill:#1a1a1a;stroke-width:0.264583"
       d="m 94.239169,149.79411 c -0.0027,-0.004 -0.008,-0.012 0.002,-0.0467 0.01,-0.0346 0.0353,-0.0959 0.08261,-0.15921 0.0473,-0.0633 0.11657,-0.12856 0.0706,-0.1592 -0.04596,-0.0306 -0.207167,-0.0266 -0.251798,0.0406 -0.04463,0.0673 0.02731,0.19785 0.06328,0.26313 0.03597,0.0653 0.03596,0.0653 0.0333,0.0613 z"
       id="path26"
       inkscape:path-effect="#path-effect26"
       inkscape:original-d="m 94.241828,149.7981 c -0.0053,-0.008 -0.01066,-0.016 -0.01598,-0.024 0.02532,-0.0613 0.05063,-0.12257 0.07594,-0.18386 0.06928,-0.0653 0.138557,-0.13056 0.207838,-0.19584 -0.161211,0.004 -0.322413,0.008 -0.483621,0.012 0.07194,0.13057 0.143888,0.26113 0.215831,0.39169 z" /><rect
       style="fill:#1a1a1a;stroke-width:0.292446"
       id="rect26"
       width="3.6461513"
       height="0.70089829"
       x="80.019661"
       y="148.12735"
       ry="0.35044861"
       rx="0" /><rect
       style="fill:#1a1a1a;stroke-width:0.163715"
       id="rect27"
       width="1.0852618"
       height="2.9605494"
       x="92.868515"
       y="149.3611"
       ry="0.20775783" /><rect
       style="fill:#1a1a1a;stroke-width:0.238633"
       id="rect28"
       width="2.4277427"
       height="0.70089829"
       x="92.869171"
       y="149.05042"
       ry="0.18508403"
       rx="0.80660367" /><rect
       style="fill:#1a1a1a;stroke-width:0.266965"
       id="rect30"
       width="1.0400391"
       height="1.9742769"
       x="94.356674"
       y="149.09105"
       rx="0.52001953"
       ry="0.19651021" /><rect
       style="fill:#1a1a1a;stroke-width:0.241605"
       id="rect31"
       width="2.4885993"
       height="0.70089829"
       x="93.077248"
       y="151.62764"
       ry="0.18508403"
       rx="0.82682294" /><rect
       style="fill:#1a1a1a;stroke-width:0.292778"
       id="rect37"
       width="1.2043538"
       height="8.5320473"
       x="163.45697"
       y="74.395172"
       ry="0.5987401"
       transform="matrix(0.84993197,0.52689245,-0.53694993,0.84361411,0,0)" /><rect
       style="fill:#1a1a1a;stroke-width:0.241605"
       id="rect39"
       width="2.4885993"
       height="0.70089829"
       x="92.883644"
       y="150.38261"
       ry="0.25122985"
       rx="0.82682294" /><rect
       style="fill:#1a1a1a;stroke-width:0.241605"
       id="rect40"
       width="2.4885993"
       height="0.70089829"
       x="96.378311"
       y="150.08418"
       ry="0.25122985"
       rx="0.82682294" /><rect
       style="fill:#1a1a1a;stroke-width:0.127394"
       id="rect41"
       width="1.0852618"
       height="1.792662"
       x="5.1438766"
       y="177.31822"
       ry="0.54263091"
       transform="rotate(-30.966938)" /><rect
       style="fill:#1a1a1a;stroke-width:0.16251"
       id="rect42"
       width="1.0852618"
       height="2.9171412"
       x="100.36852"
       y="149.41054"
       ry="0.20471165" /><rect
       style="fill:#1a1a1a;stroke-width:0.264583"
       id="rect43"
       width="1.0400391"
       height="1.9391978"
       x="101.85669"
       y="149.13216"
       rx="0.52001953"
       ry="0.1930186" /><rect
       style="fill:#1a1a1a;stroke-width:0.241605"
       id="rect44"
       width="2.4885993"
       height="0.70089829"
       x="100.57726"
       y="151.63367"
       ry="0.18508403"
       rx="0.82682294" /><rect
       style="fill:#1a1a1a;stroke-width:0.241605"
       id="rect45"
       width="2.4885993"
       height="0.70089829"
       x="100.36713"
       y="149.11534"
       ry="0.18508403"
       rx="0.82682294" /><rect
       style="fill:#1a1a1a;stroke-width:0.241605"
       id="rect46"
       width="2.4885993"
       height="0.70089829"
       x="100.38366"
       y="150.38864"
       ry="0.25122985"
       rx="0.82682294" /><rect
       style="fill:#1a1a1a;stroke-width:0.242178"
       id="rect47"
       width="2.5004265"
       height="0.70089829"
       x="85.564217"
       y="149.0486"
       ry="0.18508403"
       rx="0.83075243" /><rect
       style="fill:#1a1a1a;stroke-width:0.244795"
       id="rect48"
       width="2.5547452"
       height="0.70089829"
       x="85.526306"
       y="151.6496"
       ry="0.18508403"
       rx="0.84879953" /><rect
       style="fill:#1a1a1a;stroke-width:0.24238"
       id="rect49"
       width="2.504575"
       height="0.70089829"
       x="85.581314"
       y="150.40457"
       ry="0.25122985"
       rx="0.83213079" /><rect
       style="fill:#1a1a1a;stroke-width:0.128564"
       id="rect50"
       width="1.0852618"
       height="1.825735"
       x="85.56562"
       y="149.14536"
       ry="0.12812173" /><rect
       style="fill:#1a1a1a;stroke-width:0.116718"
       id="rect51"
       width="1.0687253"
       height="1.5280787"
       x="87.020828"
       y="150.63365"
       ry="0.10723358" /><rect
       style="fill:#1a1a1a;stroke-width:0.264583"
       id="rect52"
       width="0.92604166"
       height="5.4074216"
       x="104.98977"
       y="146.97247"
       ry="0.46302083" /><rect
       style="fill:#1a1a1a;stroke-width:0.264583"
       id="rect53"
       width="0.92604166"
       height="5.4074216"
       x="115.22124"
       y="146.98148"
       ry="0.46302083" /><rect
       style="fill:#1a1a1a;stroke-width:0.264583"
       id="rect54"
       width="0.92604166"
       height="5.4074216"
       x="117.45782"
       y="146.99388"
       ry="0.46302083" /><rect
       style="fill:#1a1a1a;stroke-width:0.289956"
       id="rect55"
       width="2.0676603"
       height="0.77574944"
       x="165.53328"
       y="96.039726"
       ry="0.38787472"
       transform="matrix(0.93401773,0.35722664,-0.40794302,0.91300739,0,0)" /><rect
       style="fill:#1a1a1a;stroke-width:0.259671"
       id="rect56"
       width="1.7313101"
       height="0.74303335"
       x="63.106647"
       y="181.52515"
       ry="0.37151667"
       transform="matrix(0.92250013,-0.38599678,0.32070892,0.9471778,0,0)" /><rect
       style="fill:#1a1a1a;stroke-width:0.242178"
       id="rect57"
       width="2.5004265"
       height="0.70089829"
       x="85.564217"
       y="149.0486"
       ry="0.18508403"
       rx="0.83075243" /><rect
       style="fill:#1a1a1a;stroke-width:0.244795"
       id="rect58"
       width="2.5547452"
       height="0.70089829"
       x="85.526306"
       y="151.6496"
       ry="0.18508403"
       rx="0.84879953" /><rect
       style="fill:#1a1a1a;stroke-width:0.128564"
       id="rect59"
       width="1.0852618"
       height="1.825735"
       x="85.56562"
       y="149.14536"
       ry="0.12812173" /><rect
       style="fill:#1a1a1a;stroke-width:0.116718"
       id="rect60"
       width="1.0687253"
       height="1.5280787"
       x="87.020828"
       y="150.63365"
       ry="0.10723358" /><rect
       style="fill:#1a1a1a;stroke-width:0.262212"
       id="rect4"
       width="0.92604166"
       height="5.3109536"
       x="110.83324"
       y="146.98824"
       ry="0.45476061" /><rect
       style="fill:#1a1a1a;stroke-width:0.272104"
       id="rect5"
       width="1.0025228"
       height="5.2829018"
       x="113.0698"
       y="147.01115"
       ry="0.4523586" /><rect
       style="fill:#1a1a1a;stroke-width:0.343647"
       id="rect6"
       width="3.0328"
       height="1.1635416"
       x="110.92361"
       y="146.90761"
       ry="0.30725279"
       rx="1.0076305" /><rect
       style="fill:#1a1a1a;stroke-width:0.353638"
       id="rect7"
       width="3.1446662"
       height="1.1883463"
       x="110.83174"
       y="151.20792"
       ry="0.3138029"
       rx="1.0447974" /><rect
       style="fill:#1a1a1a;stroke-width:0.262212"
       id="rect8"
       width="0.92604166"
       height="5.3109536"
       x="106.83141"
       y="147.05438"
       ry="0.45476061" /><rect
       style="fill:#1a1a1a;stroke-width:0.272104"
       id="rect9"
       width="1.0025228"
       height="5.2829018"
       x="109.06798"
       y="147.0773"
       ry="0.4523586" /><rect
       style="fill:#1a1a1a;stroke-width:0.343647"
       id="rect11"
       width="3.0328"
       height="1.1635416"
       x="106.92178"
       y="146.97375"
       ry="0.30725279"
       rx="1.0076305" /><rect
       style="fill:#1a1a1a;stroke-width:0.353638"
       id="rect17"
       width="3.1446662"
       height="1.1883463"
       x="106.82992"
       y="151.27406"
       ry="0.3138029"
       rx="1.0447974" /></g></svg>
